#N canvas 339 196 450 300 10;
#X obj 195 71 inlet;
#X obj 199 247 outlet;
#X obj 199 111 sig~;
#X obj 198 218 snapshot~;
#X obj 71 158 metro 20;
#X obj 72 112 loadbang;
#X obj 72 136 tgl 15 0 empty empty empty 17 7 0 10 -262144 -1 -1 1
1;
#X obj 200 172 lp2~ \$1 1;
#X connect 0 0 2 0;
#X connect 2 0 7 0;
#X connect 3 0 1 0;
#X connect 4 0 3 0;
#X connect 5 0 6 0;
#X connect 6 0 4 0;
#X connect 7 0 3 0;
