#N canvas 584 126 847 581 10;
#X obj 75 460 mrpeach/packOSC;
#X msg 24 306 disconnect;
#X obj -28 522 mrpeach/udpsend;
#X text -96 5 Step 0: Run the following command to start the graphics
;
#X text 238 5 process:;
#X text -24 68 Step 1: Connect to the UDP port created by that process
;
#X msg -24 86 connect localhost 7000;
#X text -77 20 ./SimpleGraphics;
#X obj 276 180 readsf~;
#X msg 276 123 open apache.wav;
#X msg 293 148 start;
#X text 281 99 Step 2: Open/start the sound file \, watch the graphics!
;
#X obj 127 280 dac~;
#X obj 133 224 *~ 0.5;
#X floatatom 268 374 5 0 0 0 - - -;
#X obj 296 216 fiddle~ 64 3;
#X obj 242 290 expr 0.1+2*$f1/127;
#X obj 377 339 bondo 2;
#X obj 376 364 pack f f;
#X msg 285 410 send /sg/image apache flare.png 0 0 \$1 \$1 \$2 1 0.5
1;
#X obj 398 258 signal-lop 10;
#X obj 398 288 expr ($f1-50)/20;
#X obj 233 258 signal-lop 2;
#X connect 0 0 2 0;
#X connect 1 0 2 0;
#X connect 6 0 2 0;
#X connect 8 0 13 0;
#X connect 8 0 15 0;
#X connect 9 0 8 0;
#X connect 10 0 8 0;
#X connect 13 0 12 0;
#X connect 13 0 12 1;
#X connect 15 0 20 0;
#X connect 15 4 22 0;
#X connect 16 0 17 0;
#X connect 17 0 18 0;
#X connect 17 1 18 1;
#X connect 18 0 19 0;
#X connect 19 0 0 0;
#X connect 20 0 21 0;
#X connect 21 0 17 1;
#X connect 22 0 16 0;
