#N canvas 573 122 847 581 10;
#X obj 75 460 mrpeach/packOSC;
#X msg 24 306 disconnect;
#X obj -28 522 mrpeach/udpsend;
#X text -96 5 Step 0: Run the following command to start the graphics
;
#X text 238 5 process:;
#X text -24 68 Step 1: Connect to the UDP port created by that process
;
#X msg -24 86 connect localhost 7000;
#X text -77 20 ./SimpleGraphics;
#X obj 432 170 metro 20;
#X obj 430 127 tgl 15 0 empty empty empty 17 7 0 10 -262144 -1 -1 1
1;
#X obj 277 253 snapshot~;
#X obj 286 203 osc~ 0.5;
#X obj 442 241 snapshot~;
#X obj 575 195 osc~ 0.4;
#X obj 571 235 snapshot~;
#X obj 579 296 expr 1 + 0.25*$f1;
#X obj 377 339 bondo 3;
#X obj 376 364 pack f f f;
#X msg 285 411 send /sg/image flare flare.png 0 0 \$1 \$1 0.5 \$2 0.5
\$3;
#X obj 449 296 expr 0.5 + 0.5*$f1;
#X obj 446 201 osc~ 0.1;
#X text 279 99 Step 2: Click this toggle to animate size \, color \,
and alpha;
#X obj 281 304 expr 0.2 + 0.1*$f1;
#X connect 0 0 2 0;
#X connect 1 0 2 0;
#X connect 6 0 2 0;
#X connect 8 0 10 0;
#X connect 8 0 12 0;
#X connect 8 0 14 0;
#X connect 9 0 8 0;
#X connect 10 0 22 0;
#X connect 11 0 10 0;
#X connect 12 0 19 0;
#X connect 13 0 14 0;
#X connect 14 0 15 0;
#X connect 15 0 16 2;
#X connect 16 0 17 0;
#X connect 16 1 17 1;
#X connect 16 2 17 2;
#X connect 17 0 18 0;
#X connect 18 0 0 0;
#X connect 19 0 16 1;
#X connect 20 0 12 0;
#X connect 22 0 16 0;
